<?xml version="1.0" encoding="UTF-8"?>
<svg width="120" height="120" viewBox="0 0 120 120" fill="none" xmlns="http://www.w3.org/2000/svg">
  <!-- Background -->
  <rect width="120" height="120" rx="10" fill="#fbbf24" opacity="0.2"/>
  
  <!-- House outline -->
  <path d="M60 20L20 50V100H100V50L60 20Z" fill="#38bdf8" opacity="0.7" stroke="#0ea5e9" stroke-width="2"/>
  
  <!-- Roof -->
  <path d="M60 20L20 50H100L60 20Z" fill="#0ea5e9" stroke="#0891b2" stroke-width="2"/>
  
  <!-- Door -->
  <rect x="50" y="70" width="20" height="30" rx="2" fill="#fbbf24" stroke="#f59e0b" stroke-width="2"/>
  <circle cx="55" cy="85" r="2" fill="#7c2d12"/>
  
  <!-- Windows -->
  <rect x="30" y="60" width="15" height="15" rx="2" fill="#bae6fd" stroke="#0ea5e9" stroke-width="1"/>
  <rect x="75" y="60" width="15" height="15" rx="2" fill="#bae6fd" stroke="#0ea5e9" stroke-width="1"/>
  
  <!-- Window panes -->
  <path d="M37.5 60V75M30 67.5H45" stroke="#0ea5e9" stroke-width="1"/>
  <path d="M82.5 60V75M75 67.5H90" stroke="#0ea5e9" stroke-width="1"/>
  
  <!-- Front yard -->
  <path d="M20 100H100" stroke="#16a34a" stroke-width="4"/>
  
  <!-- Family - simplified figures -->
  <circle cx="40" cy="115" r="6" fill="#0ea5e9"/> <!-- Adult 1 -->
  <rect x="37" y="121" width="6" height="12" rx="2" fill="#0ea5e9"/>
  
  <circle cx="55" cy="117" r="5" fill="#f472b6"/> <!-- Adult 2 -->
  <rect x="52.5" y="122" width="5" height="10" rx="2" fill="#f472b6"/>
  
  <circle cx="67" cy="119" r="3.5" fill="#fbbf24"/> <!-- Child 1 -->
  <rect x="65.5" y="122.5" width="3" height="7" rx="1.5" fill="#fbbf24"/>
  
  <circle cx="77" cy="120" r="3" fill="#a3e635"/> <!-- Child 2 -->
  <rect x="75.5" y="123" width="3" height="6" rx="1.5" fill="#a3e635"/>
</svg>